{
  "accessors": [
    {
      "bufferView": 1,
      "componentType": 5126,
      "count": 2537,
      "max": [
        12.549771308898926,
        -7.060794830322266,
        12.54979419708252
      ],
      "min": [
        -12.549771308898926,
        -13.460794448852539,
        -12.549771308898926
      ],
      "type": "VEC3"
    },
    {
      "bufferView": 1,
      "byteOffset": 30444,
      "componentType": 5126,
      "count": 2537,
      "max": [
        0.9999818801879883,
        1.0,
        0.9999818801879883
      ],
      "min": [
        -0.9999818801879883,
        -1.0,
        -0.9999818801879883
      ],
      "type": "VEC3"
    },
    {
      "bufferView": 0,
      "componentType": 5125,
      "count": 12150,
      "type": "SCALAR"
    }
  ],
  "asset": {
    "extras": {
      "author": "EristoffJewelryDesigns (https://sketchfab.com/EristoffJewelryDesigns)",
      "license": "CC-BY-4.0 (http://creativecommons.org/licenses/by/4.0/)",
      "source": "https://sketchfab.com/3d-models/flat-band-ring-2248b76ac57a45b0b9db5a2d04a5e13f",
      "title": "Flat Band Ring"
    },
    "generator": "Sketchfab-17.1.0",
    "version": "2.0"
  },
  "bufferViews": [
    {
      "buffer": 0,
      "byteLength": 48600,
      "name": "floatBufferViews",
      "target": 34963
    },
    {
      "buffer": 0,
      "byteLength": 60888,
      "byteOffset": 48600,
      "byteStride": 12,
      "name": "floatBufferViews",
      "target": 34962
    }
  ],
  "buffers": [
    {
      "byteLength": 109488,
      "uri": "scene.bin"
    }
  ],
  "materials": [
    {
      "doubleSided": true,
      "name": "Scene_-_Root",
      "pbrMetallicRoughness": {
        "metallicFactor": 0.0,
        "roughnessFactor": 0.6
      }
    }
  ],
  "meshes": [
    {
      "name": "Object_0",
      "primitives": [
        {
          "attributes": {
            "NORMAL": 1,
            "POSITION": 0
          },
          "indices": 2,
          "material": 0,
          "mode": 4
        }
      ]
    }
  ],
  "nodes": [
    {
      "children": [
        1
      ],
      "matrix": [
        1.0,
        0.0,
        0.0,
        0.0,
        0.0,
        2.220446049250313e-16,
        -1.0,
        0.0,
        0.0,
        1.0,
        2.220446049250313e-16,
        0.0,
        0.0,
        0.0,
        0.0,
        1.0
      ],
      "name": "Sketchfab_model"
    },
    {
      "children": [
        2
      ],
      "name": "1c673f69f6bc4591801be4d1b98a2dc5.stl.cleaner.materialmerger.gles"
    },
    {
      "mesh": 0,
      "name": "Object_2"
    }
  ],
  "scene": 0,
  "scenes": [
    {
      "name": "Sketchfab_Scene",
      "nodes": [
        0
      ]
    }
  ]
}
